<svg xmlns="http://www.w3.org/2000/svg" viewBox="0 0 1200 900" role="img" aria-label="Mesh coil pack placeholder">
  <defs>
    <linearGradient id="metal" x1="0" x2="1" y1="0" y2="1">
      <stop offset="0" stop-color="#ffffff"/>
      <stop offset=".54" stop-color="#b7c7cc"/>
      <stop offset="1" stop-color="#344852"/>
    </linearGradient>
    <filter id="shadow" x="-20%" y="-20%" width="140%" height="140%">
      <feDropShadow dx="0" dy="24" stdDeviation="28" flood-color="#071018" flood-opacity=".22"/>
    </filter>
  </defs>
  <rect width="1200" height="900" fill="none"/>
  <g filter="url(#shadow)">
    <rect x="340" y="250" width="520" height="390" rx="40" fill="#f8fcfc"/>
    <rect x="388" y="304" width="124" height="260" rx="32" fill="url(#metal)"/>
    <rect x="538" y="304" width="124" height="260" rx="32" fill="url(#metal)"/>
    <rect x="688" y="304" width="124" height="260" rx="32" fill="url(#metal)"/>
    <path d="M416 374c28-22 40 22 68 0M416 424c28-22 40 22 68 0M566 374c28-22 40 22 68 0M566 424c28-22 40 22 68 0M716 374c28-22 40 22 68 0M716 424c28-22 40 22 68 0" stroke="#7df2d3" stroke-width="10" fill="none" stroke-linecap="round"/>
    <rect x="390" y="590" width="420" height="18" rx="9" fill="#10202a" opacity=".18"/>
  </g>
</svg>
